<?xml version="1.0" encoding="UTF-8"?>
<svg id="Calque_2" data-name="Calque 2" xmlns="http://www.w3.org/2000/svg" xmlns:xlink="http://www.w3.org/1999/xlink" viewBox="0 0 209.58 126.44">
  <defs>
    <style>
      .cls-1 {
        fill: url(#Dégradé_sans_nom_9);
      }

      .cls-2 {
        fill: url(#Dégradé_sans_nom_9-4);
      }

      .cls-3 {
        fill: url(#Dégradé_sans_nom_9-2);
      }

      .cls-4 {
        fill: url(#Dégradé_sans_nom_9-3);
      }
    </style>
    <linearGradient id="Dégradé_sans_nom_9" data-name="Dégradé sans nom 9" x1="126.03" y1="126.32" x2="129.15" y2="126.32" gradientUnits="userSpaceOnUse">
      <stop offset="0" stop-color="#000dff"/>
      <stop offset="1" stop-color="#bb1681"/>
    </linearGradient>
    <linearGradient id="Dégradé_sans_nom_9-2" data-name="Dégradé sans nom 9" x1="113.58" y1="77.89" x2="113.93" y2="77.89" xlink:href="#Dégradé_sans_nom_9"/>
    <linearGradient id="Dégradé_sans_nom_9-3" data-name="Dégradé sans nom 9" x1="113.93" y1="126.4" x2="126.03" y2="126.4" xlink:href="#Dégradé_sans_nom_9"/>
    <linearGradient id="Dégradé_sans_nom_9-4" data-name="Dégradé sans nom 9" x1="0" y1="63.17" x2="209.58" y2="63.17" xlink:href="#Dégradé_sans_nom_9"/>
  </defs>
  <g id="Calque_1-2" data-name="Calque 1">
    <g>
      <path class="cls-1" d="M129.15,126.29v.06h-3.11c1.05-.02,2.08-.04,3.11-.06Z"/>
      <path class="cls-3" d="M113.93,29.43v96.91h-.27V32.43c0-.88-.04-1.8-.08-2.73.11-.1.23-.17.34-.27Z"/>
      <path class="cls-4" d="M126.03,126.35c-3.99.06-8,.1-12.11.1v-.1h12.11Z"/>
      <path class="cls-2" d="M204.73,39.02c-3.23-7.67-7.58-14.41-13.06-20.22-5.5-5.82-11.96-10.43-19.37-13.84C164.88,1.54,156.91-.12,148.4,0c-4.28,0-9.07.78-14.44,2.33-5.08,1.47-9.49,3.19-13.23,5.12-1.57-1.7-3.33-3.21-5.33-4.45-3.1-1.93-6.76-2.9-11.04-2.9h-1.24c-.46,0-.96.05-1.47.19-6.97,0-13.54,1.58-19.75,4.75-6.18,3.15-11.99,7.45-17.41,12.87-5.31-5.42-11.04-9.72-17.25-12.87C41.06,1.88,34.47.3,27.5.3c-.52-.14-1-.19-1.45-.19h-1.26c-4.26,0-7.95.97-11.04,2.9-3.1,1.95-5.67,4.43-7.74,7.45-2.08,3.03-3.59,6.49-4.56,10.37-.96,3.87-1.45,7.75-1.45,11.61v93.91h15.49V32.44c0-2.07.13-4.22.4-6.48.24-2.27.8-4.33,1.64-6.2.84-1.88,2.02-3.42,3.57-4.64,1.57-1.23,3.63-1.84,6.21-1.84,3.87,0,8.23,1.51,13.06,4.55,4.85,3.03,9.66,7.01,14.43,11.89-2.84,4.01-5.4,8.22-7.65,12.59-2.26,4.39-4.17,8.78-5.71,13.18-1.55,4.39-2.75,8.74-3.57,13.06-.86,4.33-1.26,8.42-1.26,12.3,0,4.39.38,9.26,1.14,14.62.78,5.35,2.2,10.3,4.28,14.8,2.06,4.53,4.89,8.33,8.52,11.44,3.61,3.09,8.25,4.64,13.94,4.64s10.52-1.51,14.13-4.54c3.61-3.04,6.45-6.86,8.52-11.44,2.06-4.57,3.49-9.51,4.25-14.8.79-5.29,1.17-10.2,1.17-14.72,0-3.88-.42-7.97-1.26-12.3-.84-4.32-2.03-8.67-3.59-13.06-1.55-4.4-3.46-8.79-5.71-13.18-2.26-4.37-4.81-8.58-7.64-12.59,1.18-1.24,2.39-2.44,3.59-3.57,3.51-3.3,7.08-6.07,10.73-8.32,4.91-3.04,9.3-4.55,13.18-4.55,2.58,0,4.64.61,6.19,1.84,1.54,1.22,2.75,2.76,3.59,4.64.84,1.87,1.37,3.93,1.64,6.2.15,1.28.23,2.52.3,3.75.12-.1.23-.18.35-.27v96.91h12.1c1.05-.02,2.09-.04,3.12-.06.86-.01,1.73-.01,2.59-.03,5.81-.14,11.81-.19,18.01-.19,8.25-.14,16.02-1.91,23.32-5.33,7.29-3.42,13.65-8,19.08-13.75,5.42-5.73,9.68-12.4,12.77-19.94,3.09-7.56,4.66-15.52,4.66-23.91s-1.62-16.42-4.85-24.12ZM77.64,79.68c0,5.69-.45,10.79-1.35,15.3-.65,3.87-1.87,7.42-3.67,10.65-1.81,3.23-4.52,4.97-8.13,5.23-3.5-.26-6.13-2-7.95-5.23-1.81-3.23-3.09-6.78-3.87-10.65-.9-4.51-1.28-9.61-1.17-15.3,0-6.45,1.22-12.87,3.69-19.27,2.44-6.38,5.55-12.49,9.3-18.29,3.85,5.8,7.02,11.91,9.49,18.29,2.44,6.4,3.66,12.82,3.66,19.27ZM190.5,80.75c-2.27,5.56-5.32,10.46-9.2,14.72-3.88,4.26-8.46,7.72-13.75,10.35-5.29,2.66-10.96,4.11-17.03,4.38h-7.64c-2.14,0-4.43.02-6.88.09-2.46.06-4.66.1-6.59.1V24.42c0-.52-.07-1.17-.19-1.95-.13-.77-.26-1.42-.4-1.93,3.23-1.41,6.76-2.54,10.56-3.4,3.8-.82,8.04-1.24,12.68-1.24,5.81.51,11.27,2.16,16.37,4.93,5.1,2.78,9.55,6.3,13.37,10.56,3.8,4.25,6.76,9.12,8.89,14.6,2.14,5.5,3.19,11.21,3.19,17.15s-1.12,12.07-3.38,17.61Z"/>
    </g>
  </g>
</svg>