<?xml version="1.0" encoding="UTF-8"?>
<svg id="Calque_2" data-name="Calque 2" xmlns="http://www.w3.org/2000/svg" xmlns:xlink="http://www.w3.org/1999/xlink" viewBox="0 0 354.66 72.09">
  <defs>
    <style>
      .cls-1 {
        fill: url(#Dégradé_sans_nom_9);
      }

      .cls-2 {
        fill: url(#Dégradé_sans_nom_9-2);
      }
    </style>
    <linearGradient id="Dégradé_sans_nom_9" data-name="Dégradé sans nom 9" x1="68.59" y1="72.51" x2="2.56" y2="6.48" gradientUnits="userSpaceOnUse">
      <stop offset="0" stop-color="#000dff"/>
      <stop offset="1" stop-color="#bb1681"/>
    </linearGradient>
    <linearGradient id="Dégradé_sans_nom_9-2" data-name="Dégradé sans nom 9" x1="140.39" y1="12.4" x2="188.27" y2="60.28" xlink:href="#Dégradé_sans_nom_9"/>
  </defs>
  <g id="Calque_1-2" data-name="Calque 1">
    <g>
      <path d="M129.44,14.35h7.11v56.36h-7.11v-9.66c-6.16,7.43-13.9,11.04-22.71,11.04-16.45,0-28.87-13.69-28.87-29.72s12.74-29.51,29.08-29.51c9.13,0,16.88,3.93,22.5,11.78v-10.3ZM85.29,42.58c0,12.21,9.55,22.93,22.18,22.93,11.57,0,22.5-8.7,22.5-22.71,0-13.05-9.76-22.93-22.4-22.93s-22.29,10.61-22.29,22.71Z"/>
      <path d="M256,12.59h7.11v56.36h-7.11v-9.66c-6.16,7.43-13.9,11.04-22.71,11.04-16.45,0-28.87-13.69-28.87-29.72s12.74-29.51,29.08-29.51c9.13,0,16.88,3.93,22.5,11.78v-10.3ZM211.85,40.82c0,12.21,9.55,22.93,22.18,22.93,11.57,0,22.5-8.7,22.5-22.71,0-13.05-9.76-22.93-22.4-22.93s-22.29,10.61-22.29,22.71Z"/>
      <path d="M279.3,20.76c4.25-6.16,8.81-9.66,14.54-9.66,3.29,0,4.99,1.06,6.47,1.91l-3.82,6.16c-.85-.42-2.23-1.06-3.82-1.06-5.31,0-10.08,4.56-12.21,12.31-.96,3.61-1.17,9.45-1.17,17.09v21.44h-7.64V12.59h7.64v8.17Z"/>
      <path d="M347.55,12.59h7.11v56.36h-7.11v-9.66c-6.16,7.43-13.9,11.04-22.71,11.04-16.45,0-28.87-13.69-28.87-29.72s12.74-29.51,29.08-29.51c9.13,0,16.88,3.93,22.5,11.78v-10.3ZM303.4,40.82c0,12.21,9.55,22.93,22.18,22.93,11.57,0,22.5-8.7,22.5-22.71,0-13.05-9.76-22.93-22.4-22.93s-22.29,10.61-22.29,22.71Z"/>
      <path class="cls-1" d="M15.15.49c3.84,0,7.47.87,10.88,2.61,3.41,1.74,6.58,4.11,9.49,7.09,2.99-2.99,6.19-5.35,9.6-7.09,3.41-1.74,7.04-2.61,10.88-2.61.28-.07.55-.11.8-.11h.69c2.35,0,4.37.53,6.08,1.6,1.71,1.07,3.13,2.44,4.27,4.11,1.14,1.67,1.97,3.57,2.51,5.71.53,2.13.8,4.27.8,6.4v51.74h-8.53V18.2c0-1.14-.07-2.33-.21-3.57-.14-1.24-.44-2.38-.91-3.41-.46-1.03-1.12-1.88-1.97-2.56-.85-.67-1.99-1.01-3.41-1.01-2.13,0-4.55.84-7.25,2.51-2.7,1.67-5.33,3.86-7.89,6.56,1.56,2.21,2.97,4.52,4.21,6.93,1.24,2.42,2.29,4.84,3.15,7.25.85,2.42,1.51,4.82,1.97,7.2.46,2.38.69,4.64.69,6.77,0,2.49-.21,5.19-.64,8.11-.43,2.92-1.21,5.64-2.35,8.16-1.14,2.53-2.7,4.62-4.69,6.29-1.99,1.67-4.59,2.51-7.79,2.51s-5.69-.85-7.68-2.56c-1.99-1.71-3.56-3.8-4.69-6.29-1.14-2.49-1.92-5.21-2.35-8.16-.43-2.95-.64-5.64-.64-8.05,0-2.13.23-4.39.69-6.77.46-2.38,1.12-4.78,1.97-7.2.85-2.42,1.9-4.84,3.15-7.25,1.24-2.42,2.65-4.73,4.21-6.93-2.63-2.7-5.28-4.89-7.95-6.56-2.67-1.67-5.07-2.51-7.2-2.51-1.42,0-2.56.34-3.41,1.01-.85.68-1.51,1.53-1.97,2.56-.46,1.03-.77,2.17-.91,3.41-.14,1.24-.21,2.44-.21,3.57v51.74H0V18.2c0-2.13.27-4.27.8-6.4s1.37-4.04,2.51-5.71c1.14-1.67,2.56-3.04,4.27-4.11,1.71-1.07,3.73-1.6,6.08-1.6h.69c.25,0,.52.04.8.11ZM35.52,61.41c1.99-.14,3.48-1.1,4.48-2.88,1-1.78,1.67-3.73,2.03-5.87.5-2.49.75-5.3.75-8.43,0-3.56-.68-7.09-2.03-10.61-1.35-3.52-3.09-6.88-5.23-10.08-2.06,3.2-3.77,6.56-5.12,10.08-1.35,3.52-2.03,7.06-2.03,10.61-.07,3.13.14,5.94.64,8.43.43,2.13,1.14,4.09,2.13,5.87,1,1.78,2.45,2.74,4.37,2.88Z"/>
      <path class="cls-2" d="M196.21,20.9c-1.86-4.2-4.33-7.86-7.42-11-3.09-3.14-6.69-5.62-10.82-7.42-4.12-1.8-8.53-2.62-13.22-2.46-2.35.05-4.99.53-7.92,1.44-2.94.91-5.46,1.96-7.57,3.13l-3.18,2.12v9.9l1.06,53.43c3.34-.06,6.61-.16,9.81-.3,3.2-.13,6.5-.23,9.92-.3,4.54-.16,8.81-1.22,12.79-3.19,3.98-1.96,7.43-4.55,10.36-7.78,2.92-3.22,5.2-6.93,6.82-11.12,1.62-4.2,2.39-8.6,2.3-13.22-.09-4.63-1.07-9.03-2.93-13.23ZM188.83,44.04c-1.19,3.08-2.82,5.82-4.91,8.2-2.09,2.39-4.58,4.35-7.46,5.86-2.89,1.52-6,2.38-9.34,2.59-1.64.03-3.04.06-4.21.08-1.18.02-2.44.07-3.79.13-1.35.06-2.56.1-3.62.12l-.94-47.35c0-.29-.05-.64-.13-1.07-.08-.42-.16-.78-.23-1.06,1.76-.82,3.69-1.48,5.78-1.98,2.08-.51,4.41-.78,6.97-.83,3.2.22,6.22,1.07,9.06,2.54,2.84,1.47,5.33,3.36,7.48,5.67,2.14,2.3,3.83,4.95,5.06,7.95,1.24,3,1.89,6.14,1.95,9.41.07,3.41-.49,6.66-1.67,9.74Z"/>
    </g>
  </g>
</svg>